# xmcd
#
# Track frame offsets:
#	150
#	15201
#	31896
#	52989
#	69949
#	85900
#	98539
#	112581
#	129774
#	144759
#	162103
#	178041
#	196729
#	209964
#	225936
#	241838
#	256735
#	272422
#	286283
#
# Disc length: 4038 seconds
#
# Revision: 1
# Processed by: cddbd v1.5.1PL2 Copyright (c) Steve Scherf et al.
# Submitted via: audiograbber 1.83.01
#
DISCID=dd0fc413
DTITLE=Various Artist - CDX 388
DYEAR=2006
DGENRE=Country
TTITLE0=John Pierce - I'd Still Have You
TTITLE1=Trent Willmon - On Again Tonight
TTITLE2=Garth Brooks and Trisha Yearwood - Love Will Always Win
TTITLE3=Dierks Bently - Settle For A Slowdown
TTITLE4=Chris Cagle - Wal-Mart Parking Lot
TTITLE5=Billy Currington - Why, Why, Why
TTITLE6=Neal McCoy - The Last Of A Dying Breed
TTITLE7=Neal McCoy - The Last Of A Dying Breed (w. General Tommy Franks Intro)
TTITLE8=Pirates Of The Mississippi - Drinkin' Money (TGI Party Time)
TTITLE9=Lynn Anderson - Full Moon In Bagdad
TTITLE10=Eli Young Band - When It Rains
TTITLE11=Frank Rose - Every Rose Has It's Thron
TTITLE12=The Derailers - I'm Still Missing You
TTITLE13=Robin English - I'm The One
TTITLE14=Morrison-Williams - I Still Talk To You
TTITLE15=Russell Walker - Politically Incorrect Redneck
TTITLE16=Kelsey - Thta's When You Know
TTITLE17=Kacey Jones and Jesse Goldberg - The Vasectomy Song
TTITLE18=Hal Bynum - A Lover's Prayer
EXTD=
EXTT0=
EXTT1=
EXTT2=
EXTT3=
EXTT4=
EXTT5=
EXTT6=
EXTT7=
EXTT8=
EXTT9=
EXTT10=
EXTT11=
EXTT12=
EXTT13=
EXTT14=
EXTT15=
EXTT16=
EXTT17=
EXTT18=
PLAYORDER=
